<svg xmlns="http://www.w3.org/2000/svg" viewBox="0 0 213.885 147.717"><g data-name="Layer 2"><g data-name="ART"><ellipse cx="131.722" cy="101.054" rx="24.266" ry="18.637" fill="#df642f"/><path d="M131.722 120.263c-13.695 0-24.837-8.617-24.837-19.209s11.142-19.209 24.837-19.209 24.838 8.618 24.838 19.21-11.142 19.208-24.838 19.208zm0-37.273c-13.064 0-23.693 8.103-23.693 18.064s10.629 18.065 23.693 18.065 23.693-8.104 23.693-18.065-10.628-18.064-23.693-18.064z" fill="#3e4147"/><path d="M111.262 67.066s-2.27-42.59 34.93-44.765c0 0 16.91-.006 20.01 7.708 0 0 30.156 3.854 34.383 31.72 0 0 19.165 16.602 2.819 43.283 0 0-19.165 20.16-54.393 8.301 0 0-36.622-16.898-37.75-46.247z" fill="#fdbe2a"/><path d="M170.361 117.589a67.267 67.267 0 01-21.533-3.734c-.426-.193-37.006-17.407-38.138-46.763-.032-.662-1.766-43.186 35.47-45.362.712-.042 16.94.085 20.443 7.762 3.304.536 30.407 5.731 34.517 31.953 1.835 1.727 18.372 18.401 2.771 43.866a.578.578 0 01-.073.096c-.15.157-11.903 12.18-33.457 12.182zm-24.168-94.715c-36.164 2.114-34.383 43.742-34.36 44.162v.009c1.1 28.655 37.055 45.58 37.417 45.749 33.64 11.32 52.705-7.138 53.7-8.136 15.83-25.904-1.974-41.83-2.74-42.495a.575.575 0 01-.19-.347c-4.112-27.107-33.593-31.201-33.89-31.24a.572.572 0 01-.458-.354c-2.922-7.27-19.314-7.348-19.48-7.348z" fill="#3e4147"/><path d="M156.226 93.617c-24.986-14.64-36.7-42.636-26.166-62.531a31.68 31.68 0 014.528-6.45c-25.085 9.323-23.326 42.43-23.326 42.43 1.127 29.349 37.749 46.247 37.749 46.247 35.228 11.858 54.393-8.3 54.393-8.3a50.53 50.53 0 003.856-7.616c-13.68 7.469-33.312 6.604-51.034-3.78z" fill="#e8a91b"/><path d="M170.356 117.802a67.471 67.471 0 01-21.596-3.743c-.45-.202-37.148-17.472-38.285-46.959-.037-.782-1.721-43.4 35.672-45.585.756.001 16.945.084 20.603 7.783 3.797.636 30.445 6.023 34.571 32.041 2.115 2.015 18.29 18.726 2.754 44.084a.82.82 0 01-.101.131c-.15.16-11.966 12.248-33.618 12.248zM146.193 23.09c-15.027.878-25.359 8.498-30.663 22.642a59.53 59.53 0 00-3.482 21.293v.012c1.096 28.521 36.93 45.395 37.293 45.562 33.324 11.214 52.287-6.926 53.439-8.074 15.71-25.728-1.95-41.538-2.71-42.2a.794.794 0 01-.263-.476c-4.087-26.941-33.409-31.02-33.705-31.058a.788.788 0 01-.63-.487c-2.868-7.137-19.115-7.214-19.279-7.214z" fill="#3e4147"/><path d="M171.07 49.562a.787.787 0 01-.78-.68c-2.31-16.711-6.884-21.298-6.93-21.34a.787.787 0 011.045-1.178c.05.044 5.037 4.884 7.445 22.304a.786.786 0 01-.671.886.689.689 0 01-.11.008zM168.816 56.933a.784.784 0 01-.492-.173c-25.095-20.125-47.646-.852-48.594-.022a.787.787 0 01-1.039-1.184c.243-.21 24.476-20.983 50.617-.022a.787.787 0 01-.492 1.401zM206.493 70.463a.788.788 0 01-.72-.468c-.231-.519-5.837-12.663-21.965-11.541a.787.787 0 01-.11-1.57c9.008-.635 14.915 2.78 18.286 5.753a21.558 21.558 0 015.228 6.72.789.789 0 01-.72 1.106zM182.061 103.177a.787.787 0 01-.719-1.105c.105-.237 10.309-23.868-4.057-37.874a.787.787 0 111.099-1.127c15.153 14.773 4.507 39.39 4.398 39.638a.787.787 0 01-.72.468z" fill="#3e4147"/><ellipse cx="111.731" cy="50.863" rx="22.28" ry="18.813" fill="#c5a7d4"/><path d="M111.73 70.463c-12.719 0-23.067-8.792-23.067-19.6s10.348-19.6 23.067-19.6 23.067 8.792 23.067 19.6-10.347 19.6-23.067 19.6zm0-37.626c-11.85 0-21.492 8.087-21.492 18.026s9.641 18.025 21.492 18.025 21.493-8.086 21.493-18.025-9.642-18.026-21.493-18.026z" fill="#3e4147"/><path d="M122.999 101.81c2.006 1.48-19.961-91.293-42.263-88.854 0 0-26.614 4.448-23.948 21.448 0 0 6.277 23.174 66.21 67.405z" fill="#df642f"/><path d="M123.043 102.6a.864.864 0 01-.511-.158C63.06 58.552 56.288 35.567 56.029 34.61c-1.166-7.403 2.773-13.6 11.374-18.005a50.647 50.647 0 0113.203-4.425c8.518-.927 17.6 10.439 27.045 33.791a337.402 337.402 0 0112.18 37.011c1.325 4.935 2.472 9.642 3.229 13.256 1.186 5.661.91 5.876.49 6.202a.834.834 0 01-.507.16zm-41.45-88.903a7.25 7.25 0 00-.772.042c-.214.037-25.77 4.512-23.255 20.543.045.144 6.927 23.122 64.688 65.997-1.288-9.797-15.715-65.354-32.054-81.988-2.998-3.052-5.89-4.594-8.607-4.594z" fill="#3e4147"/><path d="M85.142 53.453a.787.787 0 01-.294-1.518 41.515 41.515 0 0010.303-6.23.787.787 0 111.04 1.181 42.396 42.396 0 01-10.756 6.51.795.795 0 01-.293.057z" fill="#3e4147"/><path d="M75.744 15.385c-.062-2.418-7.284-23.981-8.905-9.812 0 0-16.403-11.42-7.734 4.067 0 0-11.533-10.39-18.75 6.662-3.615 8.538-4.505 21.038.691 28.717l5.28 1.887c2.835 1.931 13.428 2.692 18.706-20.023l7.177-4.764a7.914 7.914 0 003.535-6.734z" fill="#b5c933"/><path d="M49.634 48.578a6.867 6.867 0 01-3.663-.963l-5.19-1.855a.789.789 0 01-.387-.3c-5.346-7.899-4.431-20.801-.764-29.464 2.454-5.8 5.692-9.183 9.624-10.056a11.314 11.314 0 017.741 1.323c-1.435-3.119-1.581-5.003-.51-5.974 1.935-1.757 7.093 1.196 9.743 2.924C66.58 2.007 67.284-.043 68.914 0c3.556.157 7.574 13.694 7.616 15.365v-.001a8.712 8.712 0 01-3.885 7.41l-6.918 4.592c-3.358 14.191-8.735 19.005-12.668 20.54a9.392 9.392 0 01-3.425.67zm-8.077-4.213l5.034 1.8a.776.776 0 01.178.09 6.41 6.41 0 005.718.186c3.608-1.409 8.58-5.976 11.778-19.735a.789.789 0 01.331-.479l7.178-4.763a7.128 7.128 0 003.183-6.058c-.056-2.18-4.303-13.753-6.113-13.833-.008 0-.78.212-1.224 4.09a.785.785 0 01-.457.627.794.794 0 01-.774-.07c-3.479-2.422-7.967-4.563-8.847-3.765-.105.096-.94 1.101 2.25 6.8a.787.787 0 01-1.213.971c-.043-.039-4.297-3.798-8.994-2.747-3.402.76-6.263 3.832-8.506 9.13-3.468 8.193-4.395 20.303.478 27.756z" fill="#3e4147"/><path d="M119.14 95.892c2.462.293-60.72-69.623-79.14-56.41 0 0-21.253 17.107-10.868 30.593 0 0 16.476 17.072 90.009 25.817z" fill="#fff8e9"/><path d="M119.133 96.678a.62.62 0 01-.085-.004c-72.973-8.678-89.802-25.347-90.483-26.052C17.778 56.62 39.288 39.045 39.507 38.869c6.855-4.917 19.736.098 38.327 14.879a318.858 318.858 0 0129.09 26.78c3.623 3.754 6.989 7.416 9.478 10.312 3.873 4.503 3.73 4.85 3.53 5.328a.898.898 0 01-.799.51zm-73.42-58.067a8.795 8.795 0 00-5.254 1.51c-.172.14-20.498 16.755-10.704 29.473.106.101 17.028 16.7 88.02 25.341-5.704-7.796-44.523-48.86-66.679-55.44a19.14 19.14 0 00-5.382-.884z" fill="#3e4147"/><ellipse cx="55.057" cy="88.231" rx="21.927" ry="24.31" transform="rotate(-76.649 55.057 88.231)" fill="#c5a7d4"/><path d="M56.161 111.077a27.384 27.384 0 01-4.491-.371c-13.638-2.267-23.22-14.188-21.36-26.574a21.198 21.198 0 018.673-14.03 25.991 25.991 0 0119.461-4.345c13.638 2.265 23.22 14.186 21.36 26.574a21.198 21.198 0 01-8.673 14.03 25.486 25.486 0 01-14.97 4.716zm-2.212-44.118a23.9 23.9 0 00-14.04 4.415 19.64 19.64 0 00-8.042 12.992c-1.733 11.54 7.266 22.66 20.06 24.787a24.403 24.403 0 0018.278-4.064 19.64 19.64 0 008.042-12.993c1.733-11.542-7.266-22.66-20.06-24.787a25.912 25.912 0 00-4.238-.35z" fill="#3e4147"/><path d="M65.167 101.865s-9.84-44.023 26.616-38.398c0 0 8.948-.596 10.473 7.117 0 0 11.811-10.074 22.418-2.515 0 0 9.082 10.547 4 20.257 0 0 16.155-4.526 14.227 7.116 0 0 5.57 1.976.16 6.423z" fill="#abb833"/><path d="M143.06 102.652H65.167a.787.787 0 01-.768-.615c-.206-.923-4.929-22.712 5.395-33.751 4.873-5.211 12.284-7.097 22.033-5.61.959-.02 8.75-.085 10.894 6.566 3.127-2.24 13.224-8.361 22.41-1.814a.782.782 0 01.14.127c.365.426 8.505 10.046 4.78 19.645 2.828-.562 8.708-1.296 11.811 1.488 1.592 1.428 2.231 3.538 1.901 6.28a4.248 4.248 0 012.404 2.798c.26 1.488-.616 3.072-2.607 4.707a.789.789 0 01-.5.18zm-77.248-1.574h76.962c1.35-1.158 1.986-2.204 1.843-3.035-.172-1-1.489-1.682-1.982-1.86a.79.79 0 01-.51-.87c.409-2.47-.033-4.304-1.313-5.452-3.45-3.096-11.84-.8-11.925-.777a.787.787 0 01-.91-1.123c4.57-8.732-3.088-18.393-3.841-19.309-4.145-2.915-8.967-3.4-14.334-1.437a25.674 25.674 0 00-7.036 3.968.787.787 0 01-1.282-.447c-1.37-6.933-9.314-6.509-9.65-6.484a.91.91 0 01-.171-.007c-9.237-1.429-16.207.296-20.716 5.114-8.831 9.437-5.823 28.096-5.135 31.719z" fill="#3e4147"/><path d="M65.085 100.16s-2.94-27.668 13.758-30.485c0 0 24.307-3.058 15.993 18.556l-3.708 7.662s15.404-13.394 30.06-9.504c0 0 7.608-.853 5.636 10.412 0 0-41.747 15.314-61.739 3.358z" fill="#94a727"/><rect x="15.326" y="92.452" width="197.773" height="54.479" rx="7.527" fill="#4495d7"/><path d="M205.57 147.717H22.854a8.324 8.324 0 01-8.315-8.314V99.979a8.324 8.324 0 018.315-8.314H205.57a8.324 8.324 0 018.314 8.314v39.424a8.324 8.324 0 01-8.314 8.314zM22.854 93.24a6.748 6.748 0 00-6.74 6.74v39.424a6.748 6.748 0 006.74 6.74H205.57a6.748 6.748 0 006.74-6.74V99.979a6.748 6.748 0 00-6.74-6.74z" fill="#3e4147"/><path d="M41.046 48.879s-6.283-6.976-19.274-5.44c-1.736.163-15.703 5.983-20.92 21.829 0 0-1.045 7.468 5.498-.52 0 0-9.01 22.039.208 45.425 0 0 3.813 9.466 7.408-4.999 0 0-2.328 23.131 6.953 14.517 0 0 8.537 16.952 7.216-18.637 0 0 7.612 5.119 5.04-12.823 0 0 3.731.253-1.489-30.267 0 0-2.102-4.88 5.631-2.998z" fill="#cedd3e"/><path d="M24.878 124.513c-1.781.001-3.375-2.23-4.18-3.59-1.782 1.425-3.337 1.823-4.63 1.18-2.606-1.297-3.159-6.814-3.161-11.246-.967 2.037-2.034 3.055-3.251 3.14-2.27.125-3.676-3.152-3.829-3.53C-1.26 92.48 2.365 75.105 4.47 67.915c-1.344 1.18-2.384 1.545-3.231 1.174-1.538-.673-1.24-3.392-1.164-3.93a.792.792 0 01.031-.137c5.448-16.55 19.849-22.203 21.593-22.367 13.223-1.567 19.665 5.4 19.933 5.697a.787.787 0 01.087.938l-3.73 6.088a.782.782 0 01-.857.353c-3.411-.829-4.402-.187-4.671.128-.524.614-.055 1.786-.05 1.798a.808.808 0 01.052.175c3.06 17.891 3.623 28.516 1.628 30.726a1.475 1.475 0 01-.065.069c1.027 7.538.385 11.922-1.958 13.392a3.647 3.647 0 01-3.102.28c.595 18.845-1.735 21.678-3.559 22.148a2.096 2.096 0 01-.528.066zm-3.96-5.609a.745.745 0 01.14.013.788.788 0 01.563.42c.836 1.654 2.478 3.83 3.393 3.586.731-.189 3.059-2.32 2.334-21.84a.787.787 0 011.226-.682c.012.008 1.533 1.001 2.662.281 1.003-.634 2.487-3.083 1.16-12.34a.786.786 0 01.202-.646.8.8 0 01.346-.218c.31-.379 2.314-3.934-2.02-29.302a3.47 3.47 0 01.33-3.33c.96-1.135 2.823-1.39 5.688-.773l3.104-5.067c-1.574-1.418-7.6-6.037-18.181-4.787-1.41.134-15.074 5.63-20.242 21.226a3.35 3.35 0 00.246 2.202c.008-.002.889.245 3.872-3.397a.787.787 0 011.337.797c-.088.217-8.776 22.033.212 44.837.428 1.056 1.426 2.594 2.257 2.542.43-.03 1.97-.658 3.656-7.442a.787.787 0 011.547.269c-.534 5.315-.459 14.208 2.019 15.44 1.03.513 2.534-.575 3.614-1.579a.79.79 0 01.536-.21zm12.307-31.458zm-.004-.001l.004.001zm-.003 0zm-.003 0zm-.003 0zm-.003 0z" fill="#3e4147"/><path d="M195.014 34.96c-3.707 1.137-13.857 4.582-20.679 10.11a1.074 1.074 0 01-1.642-.373l-3.132-6.095a1.101 1.101 0 00-2.084.554V45.8a1.143 1.143 0 01-1.05 1.165l-11.208.63a1.18 1.18 0 00-.597 2.104l11.09 8.569a1.197 1.197 0 01.43 1.166L164.42 68.6a1.118 1.118 0 001.725 1.18l6.1-4.511a1.065 1.065 0 011.301.02l8.366 6.57a1.115 1.115 0 001.758-1.125c-.54-3.439-1.33-8.71-1.044-8.374.298.35 6.417-1.32 9.98-2.329a1.188 1.188 0 00.276-2.127l-7.889-4.943a1.202 1.202 0 01-.203-1.84c2.423-2.47 8.454-8.517 11.15-10.34a1.169 1.169 0 00.495-.972v-3.73a1.121 1.121 0 00-1.42-1.12z" fill="#b5c933"/><path d="M182.572 72.884a1.845 1.845 0 01-1.145-.406l-8.367-6.57a.277.277 0 00-.346-.005l-6.1 4.51a1.82 1.82 0 01-2.09.084 1.961 1.961 0 01-.878-2.042l1.723-9.166a.414.414 0 00-.139-.399l-11.09-8.568a1.964 1.964 0 01-.667-2.158 1.893 1.893 0 011.702-1.356l11.208-.63a.361.361 0 00.307-.378v-6.644a1.91 1.91 0 011.463-1.901 1.849 1.849 0 012.109.986l3.131 6.097a.319.319 0 00.22.178.249.249 0 00.226-.057c6.866-5.564 16.934-9.023 20.945-10.251a1.846 1.846 0 011.648.285 1.977 1.977 0 01.79 1.587v3.73a1.947 1.947 0 01-.842 1.624c-2.628 1.778-8.588 7.752-11.029 10.239a.415.415 0 00-.109.338.388.388 0 00.17.284l7.888 4.943a1.949 1.949 0 01.892 1.956 1.908 1.908 0 01-1.371 1.596 81.985 81.985 0 01-9.431 2.357c.084.873.336 2.876 1.057 7.466a1.956 1.956 0 01-.934 2.01 1.85 1.85 0 01-.94.26zm-9.688-8.616a1.857 1.857 0 011.149.403l8.366 6.569a.263.263 0 00.318.025.383.383 0 00.175-.408c-1.393-8.87-1.306-8.911-.625-9.224a.808.808 0 01.631-.011c.358-.013 2.034-.234 9.493-2.347a.352.352 0 00.242-.304.397.397 0 00-.169-.399l-7.889-4.943a1.95 1.95 0 01-.896-1.433 1.977 1.977 0 01.549-1.626c2.474-2.52 8.524-8.583 11.27-10.44a.387.387 0 00.15-.32v-3.73a.39.39 0 00-.152-.321.269.269 0 00-.252-.045c-3.921 1.2-13.762 4.578-20.413 9.967a1.843 1.843 0 01-1.541.376 1.898 1.898 0 01-1.297-1l-3.132-6.096a.283.283 0 00-.338-.177.344.344 0 00-.259.372V45.8a1.93 1.93 0 01-1.793 1.95l-11.208.63a.321.321 0 00-.287.25.402.402 0 00.126.446l11.09 8.568a1.996 1.996 0 01.724 1.936l-1.723 9.166a.386.386 0 00.166.417.262.262 0 00.318-.015l6.1-4.51a1.857 1.857 0 011.107-.37zm10.298-2.464zm11.832-26.843z" fill="#3e4147"/><ellipse cx="114.212" cy="38.77" rx="4.016" ry="2.001" fill="#c5a7d4"/><path d="M114.212 41.558c-2.739 0-4.803-1.198-4.803-2.788s2.064-2.788 4.803-2.788 4.803 1.198 4.803 2.788-2.065 2.788-4.803 2.788zm0-4.002c-2.003 0-3.23.786-3.23 1.214s1.227 1.214 3.23 1.214 3.229-.786 3.229-1.214-1.226-1.214-3.23-1.214zM98.954 87.176a.788.788 0 01-.723-1.1c4.553-10.53 2.534-17.451 2.513-17.52a.787.787 0 011.504-.464c.087.279 1.924 6.465-1.61 16.194 3.552-2.247 10.868-6.099 17.504-4.75a.787.787 0 01-.315 1.544c-8.289-1.687-18.295 5.86-18.396 5.935a.786.786 0 01-.477.161zM57.087 62.013a.787.787 0 01-.656-1.221c6.594-9.946 7.874-15.398 7.886-15.451a.787.787 0 011.537.342c-.051.23-1.327 5.746-8.11 15.978a.787.787 0 01-.657.352zM80.88 38.265a.787.787 0 01-.375-1.48c11.777-6.377 14.15-12.94 14.173-13.006a.787.787 0 011.491.504c-.097.29-2.526 7.178-14.914 13.888a.784.784 0 01-.374.094zM97.899 61.489a.787.787 0 01-.25-1.533c3.767-1.265 7.219-4.6 9.28-6.595 1.46-1.411 1.9-1.832 2.52-1.697a.958.958 0 01.624.548.788.788 0 01-.46 1.013 2.019 2.019 0 01-.28.05c-.287.23-.825.75-1.31 1.218-2.157 2.086-5.768 5.578-9.874 6.955a.774.774 0 01-.25.041zM74.615 64.422a.787.787 0 01-.622-1.27 28.81 28.81 0 004.106-7.264.787.787 0 011.488.515 29.85 29.85 0 01-4.35 7.714.786.786 0 01-.622.305zM34.704 57.119a1.736 1.736 0 01-1.347-.581.572.572 0 01.885-.726.72.72 0 00.642.149c.834-.134 3.204-1.387 7.211-10.132a.572.572 0 111.04.476c-3.156 6.89-5.9 10.522-8.158 10.797a2.24 2.24 0 01-.273.017z" fill="#3e4147"/><path d="M177.834 57.593c-.325 1.216 2.792 9.264 2.792 9.264l-6.455-5.456-6.694 3.605 2.255-7.413-7.388-5.839h9.141s10.891-8.76 17.92-10.983c0 0-10.064 11.191-11.57 16.822z" fill="#cedd3e"/><ellipse cx="83.264" cy="21.548" rx="3.78" ry="4.318" transform="rotate(-75.139 83.264 21.548)" fill="#f3783c"/><path fill="#b78d43" d="M213.098 113.699h-71.056"/><path d="M213.098 114.486h-71.056a.787.787 0 010-1.574h71.056a.787.787 0 010 1.574z" fill="#3e4147"/><path fill="#b78d43" d="M131.722 113.699h-27.031"/><path d="M131.722 114.486h-27.03a.787.787 0 010-1.574h27.03a.787.787 0 010 1.574z" fill="#3e4147"/><path fill="#b78d43" d="M15.326 130.3h166.481"/><path d="M181.807 131.088H15.326a.787.787 0 010-1.575h166.481a.787.787 0 110 1.575z" fill="#3e4147"/></g></g></svg>
