<svg xmlns="http://www.w3.org/2000/svg" viewBox="0 0 154.482 168.648"><g data-name="Layer 2"><g data-name="ART"><path d="M50.628 165.526l-45.022-38.76a8.531 8.531 0 01-2.142-12.736l79.09-99.535A10.858 10.858 0 0196.64 12.2l45.023 38.76a8.531 8.531 0 012.142 12.736l-79.09 99.535a10.858 10.858 0 01-14.087 2.297z" fill="#df642f"/><path d="M56.295 168.648a11.957 11.957 0 01-6.478-1.86 1.488 1.488 0 01-.167-.125L4.703 127.969a10.026 10.026 0 01-2.413-14.872l79.089-99.535a12.406 12.406 0 0116.073-2.625 1.487 1.487 0 01.167.125l44.947 38.695a10.027 10.027 0 012.414 14.872l-79.09 99.535a12.273 12.273 0 01-9.595 4.484zm-4.77-4.33a9.339 9.339 0 0012.016-2.021l79.09-99.535a7.133 7.133 0 001.544-5.644 7.218 7.218 0 00-3.323-4.897 1.486 1.486 0 01-.167-.125l-44.94-38.689a9.337 9.337 0 00-12.017 2.023l-79.09 99.534a7.132 7.132 0 00-1.545 5.642 7.218 7.218 0 003.324 4.899 1.487 1.487 0 01.167.125z" fill="#3e4147"/><path d="M57.842 156.448l-45.023-38.76a8.531 8.531 0 01-2.142-12.736l79.09-99.535a10.858 10.858 0 0114.087-2.296l45.022 38.76a8.531 8.531 0 012.142 12.736L71.93 154.152a10.858 10.858 0 01-14.087 2.296z" fill="#f3783c"/><path d="M63.508 159.57a11.957 11.957 0 01-6.478-1.86 1.487 1.487 0 01-.167-.125L11.917 118.89a10.026 10.026 0 01-2.414-14.872l79.09-99.534a12.407 12.407 0 0116.072-2.625 1.49 1.49 0 01.167.125L149.78 40.68a10.027 10.027 0 012.414 14.872l-79.09 99.535a12.273 12.273 0 01-9.595 4.484zm-4.77-4.33a9.339 9.339 0 0012.016-2.021l79.09-99.536a7.133 7.133 0 001.545-5.643 7.219 7.219 0 00-3.324-4.898 1.487 1.487 0 01-.167-.125L102.958 4.33A9.337 9.337 0 0090.94 6.35l-79.09 99.535a7.132 7.132 0 00-1.544 5.642 7.219 7.219 0 003.324 4.899 1.486 1.486 0 01.167.125z" fill="#3e4147"/><path d="M148.877 41.88L103.854 3.12a10.858 10.858 0 00-14.087 2.297l-40.263 50.67 60.824 49.74 40.69-51.21a8.532 8.532 0 00-2.141-12.736z" fill="#4495d7"/><path d="M110.328 107.327a1.503 1.503 0 01-.95-.339l-60.823-49.74a1.5 1.5 0 01-.225-2.094l40.262-50.67a12.407 12.407 0 0116.073-2.625 1.49 1.49 0 01.167.125l44.947 38.694a10.028 10.028 0 012.414 14.873l-40.691 51.21a1.503 1.503 0 01-1.014.557 1.473 1.473 0 01-.16.009zM51.599 55.863l58.5 47.84 39.745-50.02a7.133 7.133 0 001.545-5.642 7.219 7.219 0 00-3.324-4.899 1.487 1.487 0 01-.167-.125L102.958 4.33A9.337 9.337 0 0090.94 6.35z" fill="#3e4147"/></g></g></svg>
